<svg class="h-4 w-4" stroke="currentColor" width="15" height="15" viewBox="0 0 76 76" fill="none" xmlns="http://www.w3.org/2000/svg">
<path d="M22.9515 60.4553C18.8265 60.4553 15.489 63.8303 15.489 67.9553C15.489 72.0803 18.8265 75.4553 22.9515 75.4553C27.0765 75.4553 30.4515 72.0803 30.4515 67.9553C30.4515 63.8303 27.0765 60.4553 22.9515 60.4553ZM0.451477 4.20527C0.451477 6.26777 2.13898 7.95527 4.20148 7.95527H7.95148L21.4515 36.4178L16.389 45.5678C13.6515 50.5928 17.2515 56.7053 22.9515 56.7053H64.2015C66.264 56.7053 67.9515 55.0178 67.9515 52.9553C67.9515 50.8928 66.264 49.2053 64.2015 49.2053H22.9515L27.0765 41.7053H55.014C57.8265 41.7053 60.3015 40.1678 61.5765 37.8428L75.0015 13.5053C75.3175 12.9369 75.4797 12.2958 75.4719 11.6455C75.4641 10.9952 75.2866 10.3582 74.957 9.7975C74.6274 9.23684 74.1572 8.77195 73.5928 8.44884C73.0283 8.12573 72.3893 7.9556 71.739 7.95527H16.239L13.7265 2.59277C13.4251 1.95267 12.9476 1.41167 12.3499 1.03312C11.7522 0.654572 11.059 0.454133 10.3515 0.455274H4.20148C2.13898 0.455274 0.451477 2.14277 0.451477 4.20527V4.20527ZM60.4515 60.4553C56.3265 60.4553 52.989 63.8303 52.989 67.9553C52.989 72.0803 56.3265 75.4553 60.4515 75.4553C64.5765 75.4553 67.9515 72.0803 67.9515 67.9553C67.9515 63.8303 64.5765 60.4553 60.4515 60.4553Z" fill="#3182ce"/>
</svg>
