<!-- Generator: Adobe Illustrator 17.0.0, SVG Export Plug-In  -->
<svg version="1.1"
	 xmlns="http://www.w3.org/2000/svg" xmlns:xlink="http://www.w3.org/1999/xlink" xmlns:a="http://ns.adobe.com/AdobeSVGViewerExtensions/3.0/"
	 x="0px" y="0px" width="270.192px" height="91.495px" viewBox="0 0 270.192 91.495" enable-background="new 0 0 270.192 91.495"
	 xml:space="preserve">
<defs>
</defs>
<g id="XMLID_15_9_2_" transform="translate(103.975 82)">
	<path id="XMLID_3_" fill="#FA8D29" d="M-103.099,7.9c-0.2,0.2-0.4,0.3-0.5,0.4s-0.3,0.2-0.3,0.4c-0.102,0.114-0.102,0.286,0,0.4
		c0.167,0.142,0.382,0.214,0.6,0.2h0.3c0.11,0.014,0.22-0.023,0.3-0.1c1.939-0.576,3.816-1.347,5.6-2.3
		c1.773-0.983,3.477-2.085,5.1-3.3c1.544-1.211,2.952-2.586,4.2-4.1c4.4-5.3,7.6-10.6,11.4-16c2.6,0,6.4,0.4,9-1.6
		c0.717-0.559,1.241-1.328,1.5-2.2c-2.6,0-5.3,0.3-8,0.3c1.2-1.8,2.3-3.4,3.3-4.6s1.9-2.1,2.6-2.8c0.449-0.357,0.917-0.691,1.4-1
		c0.54-0.293,1.11-0.528,1.7-0.7c0.481-0.177,0.987-0.279,1.5-0.3c0.687-0.049,1.366,0.166,1.9,0.6c0.5,0.508,0.786,1.188,0.8,1.9
		c1.292-0.428,2.533-0.998,3.7-1.7c0.701-0.37,1.288-0.923,1.7-1.6c0.306-0.49,0.306-1.11,0-1.6c-0.344-0.425-0.854-0.68-1.4-0.7
		c-0.794-0.125-1.596-0.192-2.4-0.2c-1.922-0.014-3.838,0.221-5.7,0.7c-1.944,0.426-3.826,1.098-5.6,2
		c-1.813,0.875-3.524,1.948-5.1,3.2c-1.592,1.24-2.976,2.725-4.1,4.4c-0.5,0.8-1.1,1.5-1.6,2.3c-0.702-0.027-1.404,0.006-2.1,0.1
		c-0.485,0.059-0.957,0.194-1.4,0.4c-0.7,0.3-3.1,2.2-2.2,2.7c1.017,0.397,2.117,0.534,3.2,0.4c-0.2,0.3-0.5,0.7-0.9,1.4
		c-3.1,4.7-6.2,9.4-9.2,14.1c-0.4,0.7-0.8,1.2-0.9,1.4c-0.997,1.503-2.172,2.879-3.5,4.1C-99.693,5.822-101.338,6.963-103.099,7.9
		 M-48.899-5.3c-0.602,0.391-1.237,0.725-1.9,1c-0.418,0.205-0.853,0.372-1.3,0.5v-0.7c0.018-0.384,0.12-0.76,0.3-1.1
		c0.259-0.638,0.595-1.243,1-1.8c2.247-3.825,4.788-7.469,7.6-10.9c0.587-0.772,1.221-1.507,1.9-2.2l1.5-1.5
		c-0.606-0.326-1.243-0.594-1.9-0.8c-0.715-0.204-1.456-0.305-2.2-0.3c-0.645,0.002-1.286,0.103-1.9,0.3
		c-0.618,0.225-1.219,0.492-1.8,0.8c-0.559-0.437-1.208-0.744-1.9-0.9c-0.85-0.21-1.724-0.311-2.6-0.3
		c-1.49,0.053-2.967,0.288-4.4,0.7c-1.586,0.539-3.124,1.208-4.6,2c-1.593,0.906-3.129,1.908-4.6,3c-4.5,3.5-8.4,8-10.3,12.3
		c-0.466,1.007-0.737,2.092-0.8,3.2c-0.1,4.5,6.4,3.2,10.6,0.8c2.91-1.746,5.655-3.754,8.2-6c-0.221,0.355-0.421,0.722-0.6,1.1
		c-0.408,0.781-0.775,1.582-1.1,2.4c-1.5,3.5,0.4,5.8,5.2,4.1c1.035-0.348,2.038-0.783,3-1.3c1-0.6,2-1.2,3-1.9
		c0.863-0.624,1.667-1.327,2.4-2.1c0.629-0.599,1.138-1.311,1.5-2.1c0.077-0.08,0.114-0.19,0.1-0.3c0-0.1-0.1-0.1-0.2-0.1
		c-0.49,0.092-0.963,0.26-1.4,0.5C-47.08-6.455-48.017-5.919-48.899-5.3 M-61.199-7.7c-1.199,1.096-2.506,2.067-3.9,2.9
		c-0.704,0.548-1.526,0.924-2.4,1.1c-0.433,0.062-0.851-0.188-1-0.6c-0.063-0.575,0.005-1.156,0.2-1.7c1.5-3.7,5.4-8.6,9.2-11.6
		c0.811-0.648,1.681-1.217,2.6-1.7c0.711-0.373,1.498-0.578,2.3-0.6c0.516-0.007,1.027,0.095,1.5,0.3
		c0.469,0.146,0.885,0.423,1.2,0.8c1.4,1.9-3.9,6-5.9,7.8C-58.6-9.827-59.868-8.725-61.199-7.7 M-16.899-23.2
		c-1.314,0.086-2.586,0.499-3.7,1.2c-1.723,0.96-3.362,2.064-4.9,3.3c-1.8,1.4-3.8,3.1-5.9,5c1.1-1.5,2-2.8,2.8-4
		c0.688-1.015,1.29-2.085,1.8-3.2c0.3-0.7,0.3-1.2-0.1-1.6c-0.444-0.451-1.071-0.672-1.7-0.6c-0.841,0.018-1.678,0.119-2.5,0.3
		c-1,0.2-2.1,0.5-3.4,0.9c0.013,0.436-0.021,0.871-0.1,1.3c-0.135,0.543-0.302,1.077-0.5,1.6c-0.477,1.08-1.046,2.117-1.7,3.1
		c-0.8,1.3-1.8,2.8-3,4.5c-1.2,1.7-2.6,3.6-4.1,5.5c-1.6,2-3.3,4.1-5.2,6.2c0.8,0.1,1.5,0.2,2.1,0.3c0.563,0.08,1.132,0.114,1.7,0.1
		c0.744,0.013,1.486-0.089,2.2-0.3c0.587-0.143,1.134-0.417,1.6-0.8c0.491-0.406,0.959-0.84,1.4-1.3c1.4-1.5,2.7-3,4-4.4
		s2.5-2.7,3.7-3.9s2.3-2.3,3.4-3.2c0.953-0.812,1.992-1.516,3.1-2.1c0.828-0.467,1.751-0.741,2.7-0.8c0.357-0.008,0.707,0.097,1,0.3
		c0.256,0.199,0.433,0.483,0.5,0.8c0.935-0.618,1.836-1.286,2.7-2c0.749-0.649,1.451-1.351,2.1-2.1c0.539-0.628,0.978-1.337,1.3-2.1
		c0.251-0.458,0.322-0.993,0.2-1.5c-0.2-0.4-0.7-0.6-1.4-0.6h-0.1V-23.2z M14.501,3.5c0.602-0.584,1.108-1.259,1.5-2
		c0.3-0.7-0.5-0.3-1,0c-1.1,0.6-2.2,1.3-3.3,2c-9.7,5.6,6.4-15.4,7.7-17.3c1.528-1.967,2.804-4.117,3.8-6.4
		c0.208-0.506,0.277-1.058,0.2-1.6c-0.283-1.062-1.311-1.747-2.4-1.6c-3.3,0-8.6,3.3-11.4,5.2c-1.843,1.3-3.613,2.702-5.3,4.2
		c1.4-1.7,4.7-6.6,4.1-8.2c-0.13-0.432-0.468-0.77-0.9-0.9c-0.541-0.214-1.119-0.316-1.7-0.3c-1.456,0.105-2.88,0.478-4.2,1.1
		c-2.02,0.901-3.961,1.971-5.8,3.2c-2.406,1.588-4.71,3.325-6.9,5.2c1.808-2.233,3.383-4.646,4.7-7.2
		c0.178-0.375,0.213-0.801,0.1-1.2c-0.7-2-5.7-0.5-7.9,0.2c0.013,0.469-0.02,0.938-0.1,1.4c-0.354,1.351-0.929,2.635-1.7,3.8
		c-2.538,4.233-5.379,8.277-8.5,12.1c-1.3,1.6-2.7,3.3-4.3,5c3.2,0.5,6.8,0.5,9.7-2.7c1.6-1.8,3.2-3.6,4.9-5.3
		c2.4-2.5,8.3-7.7,11.8-9.6c0.434-0.337,0.953-0.545,1.5-0.6c0.6,0,0.7,0.3,0.5,0.8c-0.361,0.689-0.762,1.357-1.2,2
		c-1.9,2.8-3.9,5.7-5.9,8.5c-4.8,6.8,0.6,7.6,5.3,2.4c4.1-4.6,10.9-10.8,14.7-13c0.476-0.327,1.026-0.533,1.6-0.6
		c0.189-0.018,0.375,0.056,0.5,0.2c0.1,0.1,0.1,0.3-0.1,0.6c-1.9,4.5-7.1,10.2-11,15.3C-7.999,13.9,7.401,10.8,14.501,3.5"/>
	<path id="XMLID_2_" fill="#1D4F90" d="M147.401-11.6c-0.482,1.367-0.849,2.772-1.1,4.2c-0.5,2.9,0.6,4.4,3.4,4.4
		c1.367,0.048,2.709-0.375,3.8-1.2c1.007-0.775,1.827-1.766,2.4-2.9c0.719-1.428,1.353-2.897,1.9-4.4
		c0.57-1.423,1.005-2.896,1.3-4.4c0.5-2.8-0.6-4.2-3.2-4.2c-1.993-0.065-3.907,0.782-5.2,2.3
		C149.208-15.968,148.087-13.862,147.401-11.6 M156.801-23.2c2.006-0.084,4.01,0.222,5.9,0.9c1.32,0.408,2.409,1.351,3,2.6
		c0.503,1.375,0.641,2.856,0.4,4.3c-0.232,1.334-0.6,2.641-1.1,3.9c-0.643,1.868-1.517,3.648-2.6,5.3
		c-0.962,1.444-2.183,2.699-3.6,3.7c-1.422,1.009-3.014,1.755-4.7,2.2c-1.959,0.502-3.978,0.738-6,0.7c-3.5,0-6-0.7-7.5-2
		s-2-3.3-1.6-6.1c0.22-1.261,0.555-2.5,1-3.7C143.001-19.3,148.601-23.2,156.801-23.2 M116.501,0l8.4-23.1h7.4
		c-0.4,1-0.7,1.9-1.1,2.8c0.1-0.1,0.6-0.4,1.4-1c1.046-0.656,2.195-1.13,3.4-1.4c1.326-0.416,2.71-0.619,4.1-0.6
		c0.768-0.043,1.539-0.009,2.3,0.1l-0.6,3.3c-0.785-0.198-1.591-0.299-2.4-0.3c-1.548-0.031-3.083,0.276-4.5,0.9
		c-1.398,0.525-2.687,1.305-3.8,2.3c-0.835,0.724-1.515,1.608-2,2.6c-1.7,4.7-3.4,9.5-5.1,14.2h-7.5L116.501,0z M96.501,0l8.4-23.1
		h7.4c-0.4,1-0.7,1.9-1.1,2.8c0.1-0.1,0.6-0.4,1.4-1c1.046-0.656,2.195-1.13,3.4-1.4c1.326-0.416,2.71-0.619,4.1-0.6
		c0.768-0.043,1.539-0.009,2.3,0.1l-0.6,3.3c-0.785-0.198-1.591-0.299-2.4-0.3c-1.548-0.031-3.083,0.276-4.5,0.9
		c-1.398,0.525-2.687,1.305-3.8,2.3c-0.835,0.724-1.515,1.608-2,2.6c-1.7,4.7-3.4,9.5-5.1,14.2h-7.5L96.501,0z M80.601-11.6
		c-0.482,1.367-0.849,2.772-1.1,4.2c-0.5,2.9,0.6,4.4,3.4,4.4c1.367,0.048,2.709-0.376,3.8-1.2c1.007-0.775,1.827-1.766,2.4-2.9
		c0.719-1.428,1.353-2.897,1.9-4.4c0.57-1.423,1.005-2.896,1.3-4.4c0.5-2.8-0.6-4.2-3.2-4.2c-1.993-0.065-3.907,0.782-5.2,2.3
		C82.408-15.968,81.287-13.862,80.601-11.6 M90.001-23.2c2.006-0.084,4.01,0.222,5.9,0.9c1.32,0.408,2.409,1.351,3,2.6
		c0.503,1.375,0.641,2.856,0.4,4.3c-0.232,1.334-0.6,2.641-1.1,3.9c-0.643,1.868-1.517,3.648-2.6,5.3
		c-0.962,1.444-2.183,2.699-3.6,3.7c-1.422,1.009-3.014,1.755-4.7,2.2c-1.959,0.502-3.978,0.738-6,0.7c-3.5,0-6-0.7-7.5-2
		s-2-3.3-1.6-6.1c0.268-1.25,0.602-2.485,1-3.7C76.201-19.3,81.801-23.2,90.001-23.2 M31.001-3.6c1.309-0.181,2.549-0.698,3.6-1.5
		c0.6-0.6,1-1,1-1.3c0.6-1.8,1.3-3.5,1.9-5.3c-0.139,0.192-0.308,0.361-0.5,0.5c-0.412,0.353-0.887,0.624-1.4,0.8
		c-0.927,0.357-1.907,0.56-2.9,0.6c-1.813,0.155-3.597,0.559-5.3,1.2c-1.237,0.475-2.168,1.518-2.5,2.8c-0.3,1.6,0.9,2.4,3.4,2.4
		C29.206-3.324,30.118-3.391,31.001-3.6 M62.801-32.3h-7.4c-3.9,10.8-7.8,21.6-11.7,32.3h7.4l6-16.8c0.6-1.8,2.1-2.4,4-3
		c0.722-0.19,1.457-0.324,2.2-0.4c1.101-0.088,2.206,0.119,3.2,0.6c0.661,0.43,0.949,1.252,0.7,2c-0.053,0.378-0.154,0.747-0.3,1.1
		c-2,5.5-4,11.1-6,16.6h5.5c1.9-5.4,3.9-10.8,5.8-16.1c1.7-4.7,0.1-7.1-5.8-7.1c-1.246-0.032-2.49,0.102-3.7,0.4
		c-0.927,0.164-1.833,0.433-2.7,0.8c-1.4,0.6-1.2,0.8-0.6-0.9C60.601-26.1,61.701-29.2,62.801-32.3 M33.301,0l0.9-2.4
		c-0.787,0.653-1.663,1.191-2.6,1.6c-2.023,0.699-4.162,1.004-6.3,0.9c-1.768,0.036-3.507-0.451-5-1.4
		c-1.228-0.84-1.79-2.364-1.4-3.8c0.11-0.44,0.244-0.874,0.4-1.3c0.789-2.303,2.488-4.183,4.7-5.2c2.918-1.347,6.087-2.063,9.3-2.1
		c1.647-0.056,3.258-0.502,4.7-1.3c1.001-0.499,1.733-1.414,2-2.5c0.133-0.736-0.181-1.481-0.8-1.9c-0.88-0.6-1.938-0.882-3-0.8
		c-2.615-0.086-5.214,0.427-7.6,1.5c-1.49,0.673-2.899,1.511-4.2,2.5c0.9-1.5,1.9-3.1,2.8-4.6c0-0.1,0.5-0.3,1.5-0.7
		c1.227-0.493,2.5-0.862,3.8-1.1c1.743-0.37,3.518-0.571,5.3-0.6c6.9,0,10,1.8,9.4,5.4c-0.101,0.41-0.235,0.811-0.4,1.2
		c-2,5.5-4,11.1-6,16.6H33.301z"/>
	<g id="XMLID_16_8_2_">
		<path id="XMLID_18_2_2_" fill="#1D4F90" d="M59.001-63.4l-1.9,8c-0.928,3.347-3.929,5.698-7.4,5.8h-9l-3.3,14.4
			c0,0.1-0.1,0.1-0.2,0.1h-18.3c-0.055,0-0.1-0.045-0.1-0.1l3.3-14.4h-7.1c14.1-10.1,30.7-16.3,43.6-16
			c6.722-0.246,13.425,0.877,19.7,3.3C71.976-63.75,65.451-64.122,59.001-63.4"/>
		<path id="XMLID_17_6_2_" fill="#FA8D29" d="M13.201-67.5h13.1l3.3-14.4c0-0.1,0.1-0.1,0.2-0.1h18.3c0.055,0,0.1,0.045,0.1,0.1v0
			c-3.5,15.5-4.6,12.1-16.7,18.4c-20.8,10.7-34.6,27.5-35.8,41.7c-0.2-8.7,4.8-18.7,13.4-27.8h-6l2.8-12.1
			C6.784-65.035,9.753-67.394,13.201-67.5"/>
	</g>
</g>
</svg>
